<svg xmlns="http://www.w3.org/2000/svg" fill="currentColor" height="24" viewBox="0 -960 960 960" width="24"><path d="M482.912-173.5q-127.745 0-217.079-89.422Q176.5-352.343 176.5-480.088q0-112.412 71.021-196.412T425-782h-3q-13.5 28-20.75 58.75T394-660.188q0 112.396 78.458 190.792Q550.917-391 663-391q32.377 0 62.856-7.294Q756.335-405.589 784-419v-3q-20.5 106.458-104.588 177.479-84.089 71.021-196.5 71.021Zm.229-25.5Q571.5-199 642-248.25 712.5-297.5 745-377q-20.833 5.455-41.417 8.477Q683-365.5 663.095-365.5q-122.416 0-208.506-86.089-86.089-86.09-86.089-208.506 0-19.905 3.023-40.488Q374.545-721.167 380-742q-79.5 32.5-128.75 103.014T202-479.826q0 116.362 82.334 198.594T483.141-199ZM473.5-470.5Z"/></svg>