<svg xmlns="http://www.w3.org/2000/svg" fill="currentColor" height="24" viewBox="0 -960 960 960" width="24"><path d="M607.5-462 585-484.5q9.5-56-30.75-93T464.5-605L442-627.258q8-3.242 17.25-4.492t20.6-1.25q56.312 0 94.731 38.419T613-499.85q0 11.35-1.25 21.6Q610.5-468 607.5-462ZM731-342l-19.5-15.818q37-28.682 67.066-63.529Q808.631-456.195 829.5-500 780-600.5 687-659.5t-207-59q-28.5 0-57.25 4.25T367.5-702L347-722.5q32.5-11.5 66.5-16.5t66.5-5q121.951 0 225.475 67Q809-610 858.5-499.922q-21 43.922-52.25 83.672T731-342Zm54.5 203.5L636-288.5Q612.5-276 571.913-266T480-256q-122.756 0-225.128-67Q152.5-390 101.5-499.788q24-52.712 64-98.962T249-674.5l-111-112 18-18 648 648-18.5 18Zm-518-518q-36 23.5-76 66.5t-61 90Q180-399.5 273-340.5t207 59q40 0 80.75-8.25T618-306l-75.234-75Q534-375 514.5-371t-34.628 4Q424-367 385.5-405.375T347-500q0-13.869 4-32.75t10-29.75l-93.5-94Zm272 126.5ZM443-481.5Z"/></svg>