<svg xmlns="http://www.w3.org/2000/svg" fill="currentColor" height="24" viewBox="0 -960 960 960" width="24"><path d="M480.235-367q55.515 0 94.14-38.86Q613-444.721 613-500.235q0-55.515-38.86-94.14Q535.279-633 479.765-633q-55.515 0-94.14 38.86Q347-555.279 347-499.765q0 55.515 38.86 94.14Q424.721-367 480.235-367Zm-.176-26q-44.559 0-75.809-31.191T373-499.941q0-44.559 31.191-75.809t75.75-31.25q44.559 0 75.809 31.191t31.25 75.75q0 44.559-31.191 75.809T480.059-393Zm.084 137Q357-256 255.5-322.5T101.5-500Q154-611 255.357-677.5t224.5-66.5Q603-744 704.5-677.5t154 177.5Q806-389 704.643-322.5t-224.5 66.5ZM480-500Zm0 218.5q111.803 0 205.974-58.906Q780.145-399.311 829.5-500q-49.355-100.689-143.526-159.594Q591.803-718.5 480-718.5q-111.803 0-205.974 58.906Q179.855-600.689 130.5-500q49.355 100.689 143.526 159.594Q368.197-281.5 480-281.5Z"/></svg>