<svg xmlns="http://www.w3.org/2000/svg" fill="currentColor" height="24" viewBox="0 -960 960 960" width="24"><path d="M484.433-216.5q-110.808 0-187.371-76.557Q220.5-369.615 220.5-479.923t76.562-186.943Q373.625-743.5 484.5-743.5q71.5 0 133 35.5t97 98.5v-134H740V-561H557.5v-25.5H697q-31.032-61.033-87.722-96.267Q552.589-718 484.539-718 385-718 315.5-648.382q-69.5 69.617-69.5 168.5Q246-381 315.375-311.5T484.331-242q76.298 0 137.734-43.5 61.435-43.5 86.623-115H736q-25.5 83-94.99 133.5-69.491 50.5-156.577 50.5Z"/></svg>